<?xml version="1.0" encoding="UTF-8"?>
<svg version="1.1" xmlns="http://www.w3.org/2000/svg" width="30" height="30">
<path d="M0 0 C4.29 0 8.58 0 13 0 C13.05390161 3.9168502 13.09362783 7.83296001 13.125 11.75 C13.14175781 12.86117188 13.15851562 13.97234375 13.17578125 15.1171875 C13.18222656 16.18710937 13.18867188 17.25703125 13.1953125 18.359375 C13.20578613 19.34389648 13.21625977 20.32841797 13.22705078 21.34277344 C12.98938733 24.12420244 12.53502583 25.68502545 11 28 C7.91111478 30.05925681 7.29064073 30.2390374 3.8125 30.125 C2.554375 30.08375 1.29625 30.0425 0 30 C0.33 28.02 0.66 26.04 1 24 C2.32 23.67 3.64 23.34 5 23 C5.66 20.36 6.32 17.72 7 15 C4.69 15 2.38 15 0 15 C0 10.05 0 5.1 0 0 Z " fill="#7BE2AB" transform="translate(17,0)"/>
<path d="M0 0 C3.96 0 7.92 0 12 0 C12.05390161 3.9168502 12.09362783 7.83296001 12.125 11.75 C12.14175781 12.86117188 12.15851562 13.97234375 12.17578125 15.1171875 C12.18222656 16.18710937 12.18867188 17.25703125 12.1953125 18.359375 C12.20578613 19.34389648 12.21625977 20.32841797 12.22705078 21.34277344 C11.98938733 24.12420244 11.53502583 25.68502545 10 28 C6.3558226 30.4294516 4.28758728 30.16179575 0 30 C0 28.02 0 26.04 0 24 C1.32 23.67 2.64 23.34 4 23 C4.66 20.36 5.32 17.72 6 15 C4.02 15 2.04 15 0 15 C0 10.05 0 5.1 0 0 Z " fill="#7BE2AB" transform="translate(0,0)"/>
</svg>
