<?xml version="1.0" encoding="UTF-8"?>
<svg version="1.1" xmlns="http://www.w3.org/2000/svg" width="30" height="30">
<path d="M0 0 C1.8871875 0.061875 1.8871875 0.061875 3.8125 0.125 C3.4825 2.105 3.1525 4.085 2.8125 6.125 C1.4925 6.455 0.1725 6.785 -1.1875 7.125 C-1.8475 9.765 -2.5075 12.405 -3.1875 15.125 C-0.8775 15.125 1.4325 15.125 3.8125 15.125 C3.8125 20.075 3.8125 25.025 3.8125 30.125 C-0.4775 30.125 -4.7675 30.125 -9.1875 30.125 C-9.24140161 26.2081498 -9.28112783 22.29203999 -9.3125 18.375 C-9.32925781 17.26382812 -9.34601562 16.15265625 -9.36328125 15.0078125 C-9.36972656 13.93789062 -9.37617188 12.86796875 -9.3828125 11.765625 C-9.39328613 10.78110352 -9.40375977 9.79658203 -9.41455078 8.78222656 C-9.17688733 6.00079756 -8.72252583 4.43997455 -7.1875 2.125 C-4.09861478 0.06574319 -3.47814073 -0.1140374 0 0 Z " fill="#7CE3AC" transform="translate(9.1875,-0.125)"/>
<path d="M0 0 C0 1.98 0 3.96 0 6 C-1.32 6.33 -2.64 6.66 -4 7 C-4.66 9.64 -5.32 12.28 -6 15 C-4.02 15 -2.04 15 0 15 C0 19.95 0 24.9 0 30 C-3.96 30 -7.92 30 -12 30 C-12.05390161 26.0831498 -12.09362783 22.16703999 -12.125 18.25 C-12.14175781 17.13882812 -12.15851562 16.02765625 -12.17578125 14.8828125 C-12.18222656 13.81289062 -12.18867188 12.74296875 -12.1953125 11.640625 C-12.20578613 10.65610352 -12.21625977 9.67158203 -12.22705078 8.65722656 C-11.98938733 5.87579756 -11.53502583 4.31497455 -10 2 C-6.3558226 -0.4294516 -4.28758728 -0.16179575 0 0 Z " fill="#7BE2AB" transform="translate(30,0)"/>
</svg>
