<svg xmlns="http://www.w3.org/2000/svg" width="24" height="24" fill="none" viewBox="0 0 24 24"><path fill="#000" d="M21.951 6.169a2.719 2.719 0 0 0-.721-1.38A2.603 2.603 0 0 0 19.373 4H4.627a2.577 2.577 0 0 0-2.036.992c-.272.34-.459.747-.54 1.178-.034.17-.051.345-.051.522v10.616c0 .37.073.729.218 1.07a2.66 2.66 0 0 0 .732 1.003c.47.4 1.066.619 1.677.619h14.746a2.575 2.575 0 0 0 1.857-.79c.228-.232.408-.5.538-.794l.017-.042A2.7 2.7 0 0 0 22 17.308V6.692c0-.175-.017-.351-.049-.523zm-18.59-.45a1.557 1.557 0 0 1 1.266-.652h14.746a1.546 1.546 0 0 1 1.265.647l.113.156-7.871 7.03a1.315 1.315 0 0 1-1.76 0L3.257 5.87l.103-.153zm-.316 11.683a.66.66 0 0 1-.005-.094V6.912l6.108 5.462-6.046 5.403-.057-.375zM20.16 18.72c-.236.14-.509.214-.787.214H4.627c-.279 0-.55-.074-.787-.214l-.247-.147 6.247-5.58.685.61c.41.366.934.567 1.475.567a2.22 2.22 0 0 0 1.478-.567l.684-.61 6.245 5.58-.247.147zm.8-1.412a.68.68 0 0 1-.005.092l-.054.38-6.049-5.403 6.108-5.462v10.393z"/></svg>