<svg xmlns="http://www.w3.org/2000/svg" width="24" height="24" fill="none" viewBox="0 0 24 24"><path fill="#000" fill-rule="evenodd" d="M12 2C6.477 2 2 6.36 2 11.74c0 4.304 2.865 7.955 6.838 9.243.5.09.683-.211.683-.469 0-.232-.009-.999-.013-1.813-2.782.59-3.369-1.15-3.369-1.15-.455-1.125-1.11-1.424-1.11-1.424-.907-.605.068-.592.068-.592 1.004.069 1.533 1.004 1.533 1.004.891 1.488 2.339 1.058 2.91.81.09-.63.349-1.06.635-1.304-2.221-.246-4.556-1.08-4.556-4.813 0-1.063.39-1.933 1.03-2.614-.103-.246-.446-1.237.097-2.578 0 0 .84-.262 2.751.998A9.83 9.83 0 0 1 12 6.71a9.86 9.86 0 0 1 2.505.328c1.908-1.26 2.747-.998 2.747-.998.544 1.341.201 2.332.098 2.578a3.71 3.71 0 0 1 1.03 2.614c0 3.741-2.34 4.565-4.566 4.806.358.302.678.895.678 1.804 0 1.303-.012 2.352-.012 2.672 0 .26.18.564.687.468 3.972-1.29 6.833-4.94 6.833-9.241C22 6.361 17.522 2 12 2z" clip-rule="evenodd"/></svg>