<svg xmlns="http://www.w3.org/2000/svg" width="24" height="24" fill="none" viewBox="0 0 24 24"><path fill="#000" d="M12 3.802c2.67 0 2.987.01 4.04.058 1.09.05 2.213.298 3.008 1.092.801.802 1.042 1.914 1.092 3.007.048 1.054.058 1.371.058 4.041 0 2.67-.01 2.987-.058 4.04-.05 1.085-.303 2.218-1.093 3.008-.801.801-1.912 1.042-3.006 1.092-1.054.048-1.371.058-4.041.058-2.67 0-2.987-.01-4.04-.058-1.077-.05-2.225-.31-3.008-1.093-.797-.797-1.042-1.92-1.092-3.006-.048-1.054-.058-1.371-.058-4.041 0-2.67.01-2.987.058-4.04.05-1.08.306-2.22 1.092-3.008.8-.8 1.916-1.042 3.007-1.092C9.013 3.812 9.33 3.802 12 3.802zM12 2c-2.716 0-3.057.012-4.123.06-1.546.07-3.081.5-4.199 1.618C2.557 4.8 2.131 6.332 2.06 7.877 2.012 8.943 2 9.284 2 12s.012 3.057.06 4.123c.07 1.544.502 3.084 1.618 4.199 1.121 1.12 2.655 1.547 4.199 1.618 1.066.048 1.407.06 4.123.06s3.057-.012 4.123-.06c1.545-.07 3.082-.502 4.199-1.618 1.122-1.123 1.547-2.654 1.618-4.199.048-1.066.06-1.407.06-4.123s-.012-3.057-.06-4.123c-.07-1.546-.502-3.082-1.618-4.199-1.12-1.119-2.658-1.548-4.199-1.618C15.057 2.012 14.716 2 12 2z"/><path fill="#000" d="M12 6.866a5.135 5.135 0 1 0 0 10.27 5.135 5.135 0 0 0 0-10.27zm0 8.468a3.334 3.334 0 1 1 0-6.667 3.334 3.334 0 0 1 0 6.667zm5.338-7.472a1.2 1.2 0 1 0 0-2.4 1.2 1.2 0 0 0 0 2.4z"/></svg>