<svg xmlns="http://www.w3.org/2000/svg" width="24" height="24" fill="none" viewBox="0 0 24 24"><path fill="#000" d="M19.041 19.042h-2.963v-4.641c0-1.107-.02-2.531-1.542-2.531-1.543 0-1.78 1.205-1.78 2.451v4.721H9.794V9.498h2.845v1.304h.04a3.12 3.12 0 0 1 2.806-1.542c3.004 0 3.557 1.976 3.557 4.546v5.236zM6.45 8.192a1.72 1.72 0 1 1 0-3.438 1.72 1.72 0 0 1 0 3.439zm1.481 10.85H4.965V9.498H7.93v9.544zM20.52 2.002H3.475A1.46 1.46 0 0 0 2 3.442v17.114A1.46 1.46 0 0 0 3.475 22H20.52c.807.01 1.47-.636 1.481-1.443V3.442A1.463 1.463 0 0 0 20.519 2"/></svg>