<svg xmlns="http://www.w3.org/2000/svg" width="23" height="25" fill="none" viewBox="0 0 23 25"><path fill="#202020" d="M20.94 22.857L17.255 0l-1.148 7.709L14.24.835l-.386 7.717-2.138-3.998-.341 6.197-2.027-2.706-.279 5.576-2.311-1.519-.167 4.728-2.143-1.07L4 20.492l-2.143-.618-.578 2.984H0V25h22.642v-2.143H20.94zM16.876 5.758l2.078 17.099h-.558L16.669 8.524l.207-2.766zm-2.304.14l3.235 16.959h-.087l-3.333-12.605.185-4.353zm-2.14 2.005l4.108 14.954h-.022l-4.53-11.083.444-3.87zM9.801 9.792l5.482 13.065h-.068l-5.64-8.387.226-4.678zm-2.604 3.04l6.433 10.025h-.156L7.06 17.144l.137-4.311zm-2.371 3.551l6.83 6.474h-.52l-6.704-2.28.394-4.194zM2.29 20.486l7.187 2.348H2.13l.16-2.348z"/></svg>