<svg xmlns="http://www.w3.org/2000/svg" width="24" height="24" fill="none" viewBox="0 0 24 24"><path fill="#000" d="M1.69 21.823l.478-3.5c1.242.097 2.15-.159 2.724-.766.573-.607.924-1.422 1.051-2.445.128-1.023.16-2.125.096-3.307H1.69V1.69h8.172v12.032c0 2.94-.733 5.145-2.198 6.615-1.498 1.47-3.489 1.965-5.974 1.486zm12.138 0l.478-3.5c1.243.097 2.15-.159 2.724-.766.573-.607.924-1.422 1.051-2.445a18.66 18.66 0 0 0 .096-3.307h-4.349V1.69H22v12.032c0 2.94-.733 5.145-2.198 6.615-1.498 1.47-3.489 1.965-5.974 1.486z"/></svg>