<svg xmlns="http://www.w3.org/2000/svg" width="24" height="24" fill="none" viewBox="0 0 24 24"><path fill="#000" d="M22.155 2.022l-.478 3.5c-1.242-.096-2.15.16-2.723.766-.573.607-.924 1.422-1.051 2.445a18.666 18.666 0 0 0-.096 3.307h4.348v10.113h-8.17v-12.03c0-2.94.732-5.145 2.198-6.615 1.497-1.47 3.488-1.965 5.972-1.486zm-12.137 0l-.477 3.5c-1.243-.096-2.15.16-2.724.766-.573.607-.924 1.422-1.051 2.445a18.662 18.662 0 0 0-.096 3.307h4.348v10.113h-8.17v-12.03c0-2.94.732-5.145 2.198-6.615 1.497-1.47 3.488-1.965 5.972-1.486z"/></svg>