<svg xmlns="http://www.w3.org/2000/svg" width="24" height="24" fill="none" viewBox="0 0 24 24"><path fill="#000" d="M11.67 18.494a.589.589 0 0 1 .66 0l5.126 3.403c.488.324 1.087-.163.957-.777l-1.356-6.394a.763.763 0 0 1 .207-.706l4.51-4.298c.434-.413.204-1.201-.364-1.254l-5.95-.555a.652.652 0 0 1-.538-.431l-2.33-6.049c-.223-.577-.961-.577-1.184 0l-2.33 6.049a.653.653 0 0 1-.538.43l-5.95.556c-.568.053-.798.841-.365 1.254l4.51 4.298a.763.763 0 0 1 .208.706L5.587 21.12c-.13.614.469 1.1.957.777l5.126-3.403z"/></svg>