<svg xmlns="http://www.w3.org/2000/svg" width="25" height="25" fill="none" viewBox="0 0 25 25"><path fill="#000" d="M22.049 2.198s.281-.715-.05-1.299c-.333-.584-1.057-.623-1.39-.613-.332.01-.503.03-.623-.05-.119-.081-.15-.253-.341-.122-.192.13-.221.373-.242.514-.02.14.019.443.019.443s-.361.148-.713.04c-.351-.112-.525-.302-.777-.23-.252.07-.086.713.15 1.016.281.363.541.49.692.682.15.191.183.316.394.406.215.088 2.88-.787 2.88-.787z"/><path fill="#fff" d="M21.574 1.334c-.123.139-.352-.01-.623-.192-.272-.181-.584-.302-.514-.472.07-.172.553-.131.814.03.196.12.485.452.323.634z"/><path fill="#000" d="M22.936 3.365s.472.189.482 1.156c.006.617-.553 1.642-2.395 1.742-2.048.111-2.576-.836-2.636-1.6-.06-.765.383-1.5.996-1.81.613-.31 2.515-.16 2.515-.16l1.038.672z"/><path fill="#202020" d="M23.215 3.436s.088-.243.135-.383c.025-.076.133-.348.011-.49-.12-.141-.492.123-.71-.014-.235-.149-.047-.668-.327-.824-.29-.164-.49.467-.91.422-.465-.05-.459-.68-.79-.69-.333-.01-.325.701-.688.77-.313.058-.64-.373-.918-.16-.217.166.002.56-.2.761-.2.201-.54.026-.66.168-.15.182.29.768.29.768l1.566-1.145 2.254.112.947.705z"/><path fill="#fff" d="M23.421 4.534s-.08-.469-.53-.949c-.407-.436-1.007-.84-2.04-.781-1.008.058-1.703.515-2.078.996-.34.437-.387.863-.387.863s-.51-2.31 2.494-2.414c2.924-.098 2.541 2.285 2.541 2.285z"/><path fill="#000" d="M13.027 19.348s-.18-.518-.329-.746c-.242-.373-.492-.51-.492-.51l-.092-3.608 1.748-1.511s3.14-1.483 3.079-1.621c-.055-.131-.307-.05-.573.072-.2.09-3.256 1.262-3.256 1.262l-.964-.897S14.064 7.92 14 7.881c-.055-.033-.15-.057-.268.101-.078.106-2.334 3.668-2.334 3.668l-1.183-.154s-.621-4.045-.76-4.039c-.213.01-.084 1.178-.031 1.975.045.673.262 2.646.262 2.646l-.838.291S6.1 9.504 6.046 9.54c-.055.037-.139.13.025.367s2.08 2.944 1.995 3.037c-.067.077-.16.258-.26.409-.11.164-.598.365-.598.365l-3.133-1.313s-.142.213.203.377c.346.164 2.938 1.559 2.938 1.559s-.293.504-.242 1.285c.05.783.226 1.098.226 1.098s-.808.883-.87 1.603a6.92 6.92 0 0 0 .058 1.473l-.018.197-2.469 1.055s-.318.213-.417.36c-.1.146-.584.87-.891 1.347-.307.476-.711 1.316-.658 1.37.052.056.146.052.279.052h7.852l3.925-.643-.964-4.19z"/><path fill="#202020" d="M5.008 21.97c.136-.479.336-1.01.324-1.135-.012-.125-.428-.36-.428-.36s.649-.546.877-.624c.229-.08.615-.092.615-.092s-.011-.273.295-.625c.307-.352.625-1.103.625-1.103l.295-.684.307 1.752s-.037.193-.033.318c.007.26.181.319.181.319s1.565.068 1.67.01c.12-.067.334-.104.31-.442-.013-.193-.195-.394-.335-.742-.098-.24-.024-.643.205-.848.228-.205.517-.388.564-.662.045-.273-.091-.49-.41-.83-.318-.342-.42-.7-.334-1.092.049-.223.055-.389-.025-.508-.115-.168-.29-.04-.483.21-.191.25-.539.741-.824.8-.285.059-.566-.152-.558-.684.01-.556.08-1.162.548-1.855.12-.176-.142-.488-.142-.488S6.037 9.642 6.023 9.587c-.011-.054.153-.113.242-.033.082.074 2.206 2.217 2.555 2.568.3-.255.652-.486 1.055-.638l.013-.006-.449-4.012s.14-.111.272.26c.115.33.707 3 .838 3.592a3.041 3.041 0 0 1 1.322.13l2.133-3.574s.12.03-.051.442c-.152.367-1.135 2.927-1.346 3.478.416.281.69.647.87 1.018.03.068.048.117.048.117l3.416-1.58s.096.15-.115.281c-.191.12-2.662 1.596-3.11 1.87.14.603.092 1.206.092 1.206l-.011.184-.211 1.293-.319 1.441s-.144.235-.386.295c-.24.06-.41.04-.41.04s-.188.242-.291.466c-.098.215-.215.545-.047.738.168.194.681.168.681.168s.58-.527.631-.554a81.47 81.47 0 0 1 1.326-.463l-.013-.309s.078-.605.257-.928c.18-.322.516-.566.516-.566s.04-.566.387-.773c.347-.207.437-.27.437-.27s.04-.889.387-1.61c.348-.72.773-1.378 1.326-2.962.555-1.584.72-2.229.824-2.834.104-.606.352-1.024.58-1.38.233-.36.545-.806.545-.806s-.308-.277-.34-.83c-.027-.47.342-1.152 1.288-1.185.947-.034 1.355.588 1.37 1.177.014.487-.372.786-.372.786s.517 1.06.506 1.267c-.014.207-.17.37-.235.434-.064.064-.36.338-.36.338l.044 2.025s-.153.193-.572.164c-.385-.027-.592-.574-.592-.574s-.067 1.086-.196 2.219c-.128 1.132-.502 2.605-.502 2.605l-1.533 3.156.348 2.86-.498 2.898s.053.793-.022.932c-.039.074-.146.066-.236.066l-8.705-.03s.158-.318.51-.398c.353-.08.603.034.728-.148s-.295-.648-.363-.717c-.068-.068-2.912-3.084-2.912-3.084s-.41-.08-.535.16c-.125.239.136.866.023 1.49-.113.626-.455 2.698-.455 2.698H4.28s.592-1.736.729-2.215z"/><path fill="#202020" d="M13.776 14.684s2.467.959 2.402 1.138c-.064.18-2.562-.314-2.562-.314l.16-.824zm-.189 1.5c.041-.033 1.778 1.514 1.7 1.604-.102.117-1.958-.76-1.958-.76l.258-.844z"/><path fill="#000" d="M21.396 5.047c.055-.065.246-.13.218-.284-.027-.156-.2-.273-.566-.255-.365.017-.742.336-.924.62-.078.122-.1.53.073.614.175.08 1.199-.695 1.199-.695z"/><path fill="#fff" d="M20.7 6.273c-.038.146-.003.591-.065.924-.074.394-.229.585-.43.576-.44-.018-.23-1.545-.166-1.727.064-.183.385-.644.605-.846.096-.087.772-.369.862-.293.107.094.06.327-.375.706a1.64 1.64 0 0 0-.432.66zm.697-.521c-.017.21.192.238.192.238s-.092.12-.045.256c.044.137.32.201.32.201s-.115.068-.08.176c.056.181.252.162.42.283.117.086.252.287.252.287s.215-.23.123-.682c-.063-.308-.172-.779-.276-.869-.283-.248-.883-.146-.906.11zm.705 1.931s-.037-.422-.32-.586c-.33-.192-.457.01-.504.054-.047.045.017 2.051.037 2.18.017.13.289.715.535.613.248-.101.28-.916.27-1.42a68.994 68.994 0 0 0-.018-.841zM3.879 24.181c-.037.037-.13.03-.197 0-.069-.03-.282-1.06-.249-1.912.03-.773.09-.892.09-.892s.326-.426.832-.864c.44-.379 1.442-.71 1.446-.67.01.11-.616.518-1.008 1.409-.356.806-.637 1.76-.707 2.076-.069.318-.158.804-.207.853zm3.53-7.395c-.01.048.097.318.07.611-.03.326-.213.686-.203.715.01.03.129.068.248.377.12.306.022.8.125.806.322.018.871-.804.82-1.656-.078-1.289-1.06-.853-1.06-.853zm.47-1.759c-.076-.023-.12.319.045.43.162.113.515.033.664-.156.24-.305 1.53-3.162 3.793-1.928.795.434 1.004 1.2 1.017 2.057.016 1.037-.275 2.174-.242 2.236.063.113.17-.12.252-.352.088-.244.305-1.027.307-2.01.002-.923-.28-1.912-1.258-2.382-2.416-1.164-3.904 1.502-4.006 1.726-.101.227-.283.467-.572.38zM20.02 8.699c.2.076.173 3.177.246 4.709 0 .005-.088.57-.3 1.324-.241.861-1.142 3.408-1.11 3.62.033.214.58 1.438.677 1.733.098.293.215.613.1.987a.85.85 0 0 1-.166.302s.342.8.262 1.207c-.082.409-.456.59-.842.686-.248.062-.71-.033-.645-.293.065-.262.483-1.313.385-1.85a8.192 8.192 0 0 0-.402-1.511c-.165-.424-1.127-2.774-1.356-3.102-.228-.326-.703-.281-.734-.41-.033-.131.976-.746 1.515-1.203.54-.457 1.004-.992 1.004-1.065.004-.154-.066-2.554.032-2.865.097-.31.369-.95.695-1.496.283-.469.426-.855.639-.773z"/><path fill="#fff" d="M16.491 17.96c.078-.06.45.104.74 1.059.248.816.526 2.3.141 2.287-.191-.006-.523-.846-.824-1.293-.238-.355-.525-.73-.506-.89.02-.16.488-.075.479-.319-.016-.35-.116-.777-.03-.844zm-8.145 4.75c.455-.334.672-.389.672-.389s-.38-.588-.768-1.05c-.389-.465-1.297-1.354-1.27-1.46.03-.103.663-.226 1.979-.199 1.316.03 2.264.086 2.451.047.19-.037.645-.426 1.041-.482.399-.057.569-.094.569-.094s.152-.236.814-.559c.473-.228.795-.283.795-.283s.05-.242.125-.316c.037-.037.318.295.502.613s.281.65.348.746c.066.096.214.178.812 1.145a18.096 18.096 0 0 1 1.418 2.924c.266.722.283.863.283.863l-.623-.006s-.088-.71-.523-1.764c-.436-1.056-.909-1.742-.96-1.713-.05.03.286 1.49.477 1.979.192.486.67 1.5.67 1.5h-1.377s-1.074-1.235-1.982-2.069c-.908-.834-1.953-1.47-2.442-1.7-.486-.23-.92-.343-.925-.255-.006.088 1.425.954 2.046 1.485.62.531 2.499 2.535 2.499 2.535l-1.89-.004s-.456-.975-.788-1.52c-.332-.546-.76-1.15-.834-1.158-.074-.008.215 1.002.482 1.639.287.682.51 1.039.51 1.039l-1.104-.006s-.427-1.219-.714-1.994c-.287-.775-.494-1.512-.56-1.57-.067-.059-.747-.244-1.153-.385-.406-.14-.776-.324-.842-.258-.066.067 1.254 1.617 1.613 2.084.4.518 1.12 1.295.996 1.399-.123.103-.406-.256-.937-.21-.531.047-1.4.926-1.4.926l-1.409.002c0-.006.848-1.078 1.399-1.482zm6.033-3.172c-.621-.783-.906-.705-.906-.705s-.07.418.486 1.018c.498.535 1.166 1.134 1.219 1.046.05-.082-.307-.738-.8-1.359zm-.47 2.209c.26.21 1.651 1.104 1.736.97.068-.107-.909-1.261-1.448-1.61-.539-.35-2.513-.829-2.558-.737-.037.082 1.976 1.143 2.27 1.377zm-3.433-6.934c.432.021.6.304.801.275.135-.02.61-.484.574-.711-.033-.21-.299-.315-.71-.315-.31 0-.436.09-.598.186-.114.069-.147-.144-.057-.234.17-.17.412-.25.803-.27.389-.017.566.088.935.033.114.235.235.297.405.502.16.192.254.301.396.616.113.25.127.61-.016.574-.142-.037-.158-.387-.222-.533-.14-.319-.27-.334-.399-.291-.072.023-.119.242-.064.388.025.067.11.123.193.268.135.228.08.342.162.566.05.133.227.36.202.59-.041.389-.131.455-.202.654-.074.207-.12.453-.267.502-.156.053-.268-.234-.582-.355-.453-.176-.66-.088-.873-.225-.287-.183-.455-.613-.664-.81-.332-.315-.658-.608-.639-.906.02-.36.39-.526.822-.505zm1.221 1.843c.219.112.486.264.582.098.113-.197.041-.502.041-.502s.016-.225.016-.34c0-.217-.022-.492-.155-.517-.128-.024-.59.056-.646.185-.086.195.01.32.01.32s-.293.028-.325.27c-.035.258.182.336.477.486z"/><path fill="#fff" d="M11.601 16.06c.086-.023.16.033.275.106.096.06.18.125.206.19.044.122-.096.23-.368.075-.238-.139-.228-.34-.113-.37z"/><path fill="#484A4E" d="M8.172 14.414c-.026.04-.045.07-.057.094-.148.287-.42.504-.504.406-.06-.07.03-.371.149-.672l.412.172zm.368-1.458c.525-.597 1.424-1.281 2.66-1.226 1.946.086 2.46 1.923 2.254 1.976-.148.04-.371-1.238-2.273-1.295-.85-.025-1.633.504-2.198 1.043l-.443-.498zm-.462.612c.047-.072.12-.18.213-.302l.463.425c-.162.174-.3.34-.406.479l-.438-.272a2.83 2.83 0 0 1 .168-.33z"/><path fill="#202020" d="M7.473 13.917l-3.393-1.51s.063-.156.254-.103c.187.05 3.475 1.05 3.475 1.05s-.102.151-.17.266c-.067.117-.166.297-.166.297zm4.57-2.287l-.219 1.018-.365-.097.1-1 .484.08zm-1.426-.153l.18 1.113-.346.058-.316-1.107.482-.064zm2.127.718l-.187.733.296.168.327-.623-.436-.278zm-3.473-.226l.584.998-.267.168-.692-.88.375-.286z"/></svg>