<svg xmlns="http://www.w3.org/2000/svg" width="24" height="24" fill="none" viewBox="0 0 24 24"><path fill="#000" fill-rule="evenodd" d="M19.087 4.907A9.919 9.919 0 0 0 12.042 2c-5.489 0-9.956 4.445-9.958 9.91a9.85 9.85 0 0 0 1.33 4.955L2 22l5.279-1.378a9.985 9.985 0 0 0 4.758 1.206h.004c5.488 0 9.956-4.445 9.959-9.91a9.823 9.823 0 0 0-2.913-7.011zm-7.045 15.247h-.003a8.285 8.285 0 0 1-4.213-1.148l-.302-.178-3.133.817.837-3.04-.197-.312a8.183 8.183 0 0 1-1.265-4.383c.002-4.542 3.715-8.237 8.28-8.237a8.24 8.24 0 0 1 5.852 2.415 8.17 8.17 0 0 1 2.421 5.828c-.002 4.543-3.715 8.238-8.277 8.238zm4.54-6.169c-.248-.124-1.472-.723-1.7-.806-.228-.082-.394-.124-.56.123-.167.248-.643.806-.788.972-.145.165-.291.186-.54.062-.248-.124-1.05-.385-2-1.23-.74-.656-1.24-1.467-1.385-1.715-.145-.248-.015-.382.109-.505.112-.111.249-.29.373-.434.126-.144.167-.247.25-.413.084-.165.043-.31-.02-.434-.063-.123-.56-1.343-.767-1.838-.202-.484-.407-.418-.56-.425a9.63 9.63 0 0 0-.478-.009.914.914 0 0 0-.663.31c-.228.249-.87.848-.87 2.066 0 1.22.891 2.397 1.015 2.562.124.165 1.754 2.666 4.25 3.739.594.255 1.058.407 1.419.522.596.188 1.139.161 1.567.098.478-.07 1.472-.6 1.68-1.177.208-.579.208-1.075.145-1.178-.062-.104-.228-.166-.477-.29z" clip-rule="evenodd"/></svg>