<svg width="25" height="24" viewBox="0 0 25 24" fill="none" xmlns="http://www.w3.org/2000/svg">
<path fill-rule="evenodd" clip-rule="evenodd" d="M12.3034 0C5.50883 0 0 5.50781 0 12.3034C0 17.7394 3.52491 22.3511 8.41345 23.9782C9.02862 24.092 9.25418 23.7117 9.25418 23.3866C9.25418 23.0934 9.2429 22.1245 9.23778 21.0962C5.81539 21.8405 5.09257 19.6444 5.09257 19.6444C4.53276 18.2223 3.72689 17.844 3.72689 17.844C2.61036 17.0801 3.81097 17.0966 3.81097 17.0966C5.04643 17.1837 5.69646 18.3648 5.69646 18.3648C6.79351 20.2452 8.57442 19.7018 9.27674 19.387C9.38747 18.5914 9.70633 18.049 10.058 17.7415C7.32563 17.4308 4.45279 16.3758 4.45279 11.6615C4.45279 10.3184 4.93365 9.22035 5.72106 8.35911C5.5929 8.04845 5.17151 6.79761 5.84 5.10282C5.84 5.10282 6.87348 4.77268 9.22445 6.36391C10.2056 6.09119 11.2576 5.95483 12.3034 5.9497C13.3492 5.95483 14.4021 6.09119 15.3854 6.36391C17.7333 4.77165 18.7657 5.10282 18.7657 5.10282C19.4352 6.79761 19.0138 8.04845 18.8867 8.35911C19.6751 9.22035 20.1529 10.3184 20.1529 11.6615C20.1529 16.3871 17.275 17.4277 14.5354 17.7322C14.9763 18.1136 15.37 18.8631 15.37 20.0104C15.37 21.657 15.3556 22.9817 15.3556 23.3866C15.3556 23.7137 15.5771 24.0982 16.2005 23.9772C21.0869 22.348 24.6078 17.7384 24.6078 12.3044C24.6067 5.50883 19.0979 0 12.3034 0Z" fill="#F5F5F5"/>
<path d="M4.6601 17.6665C4.63345 17.728 4.53707 17.7465 4.4489 17.7044C4.3597 17.6644 4.30946 17.5804 4.33817 17.5199C4.36482 17.4573 4.4612 17.4399 4.5504 17.4819C4.6396 17.5209 4.69086 17.605 4.6601 17.6665Z" fill="#F5F5F5"/>
<path d="M5.15747 18.2211C5.09903 18.2754 4.9842 18.2498 4.90628 18.1647C4.82528 18.0785 4.81093 17.9637 4.8704 17.9094C4.93089 17.855 5.04162 17.8807 5.12261 17.9668C5.20361 18.0519 5.21899 18.1657 5.15747 18.2211Z" fill="#F5F5F5"/>
<path d="M5.64392 18.93C5.56805 18.9823 5.44502 18.933 5.36915 18.8244C5.29328 18.7147 5.29328 18.5834 5.3712 18.5311C5.44707 18.4788 5.56908 18.526 5.64598 18.6347C5.72082 18.7454 5.72082 18.8767 5.64392 18.93Z" fill="#F5F5F5"/>
<path d="M6.30835 19.6136C6.24068 19.6885 6.09714 19.668 5.99256 19.5665C5.8849 19.467 5.85517 19.3265 5.92284 19.2517C5.99153 19.1769 6.1361 19.1984 6.2417 19.2989C6.34833 19.3983 6.38011 19.5398 6.30835 19.6136Z" fill="#F5F5F5"/>
<path d="M7.22578 20.0103C7.19605 20.1067 7.05764 20.1508 6.9182 20.1098C6.77876 20.0677 6.68751 19.955 6.71622 19.8576C6.74493 19.7602 6.88437 19.715 7.02483 19.7591C7.16324 19.8001 7.25449 19.9129 7.22578 20.0103Z" fill="#F5F5F5"/>
<path d="M8.23217 20.0858C8.23525 20.1873 8.11734 20.2713 7.97072 20.2734C7.82411 20.2765 7.70415 20.1944 7.70312 20.095C7.70312 19.9925 7.81898 19.9094 7.9656 19.9063C8.11221 19.9033 8.23217 19.9853 8.23217 20.0858Z" fill="#F5F5F5"/>
<path d="M9.16934 19.9264C9.18677 20.0249 9.08527 20.1274 8.93968 20.1541C8.79716 20.1807 8.6649 20.1192 8.64645 20.0208C8.62902 19.9193 8.73257 19.8178 8.87508 19.7911C9.01965 19.7655 9.15088 19.8249 9.16934 19.9264Z" fill="#F5F5F5"/>
</svg>
