<svg width="24" height="24" viewBox="0 0 24 24" fill="none" xmlns="http://www.w3.org/2000/svg">
<path d="M20.4496 20.4505H16.8933V14.8811C16.8933 13.5529 16.8697 11.8439 15.0436 11.8439C13.1915 11.8439 12.9077 13.2904 12.9077 14.7853V20.4505H9.35258V8.99709H12.767V10.5618H12.8143C13.5109 9.37202 14.8047 8.6612 16.1825 8.71206C19.7873 8.71206 20.4508 11.0834 20.4508 14.1668L20.4496 20.4505ZM5.33977 7.43118C4.19967 7.43118 3.27601 6.50747 3.27601 5.36733C3.27601 4.22719 4.19967 3.30349 5.33977 3.30349C6.47987 3.30349 7.40354 4.22719 7.40354 5.36733C7.40354 6.50747 6.47987 7.43118 5.33977 7.43118ZM7.11733 20.4505H3.55748V8.99709H7.11733V20.4505ZM22.2224 0.00134427H1.77046C0.804218 -0.00930019 0.0118267 0.76538 0 1.73166V22.2684C0.0118267 23.2358 0.804218 24.0105 1.77046 23.9999H22.2224C23.1911 24.0117 23.987 23.237 24 22.2684V1.73048C23.9858 0.761832 23.1899 -0.0128484 22.2224 0.000161495" fill="#F5F5F5"/>
</svg>
