<svg xmlns="http://www.w3.org/2000/svg"><symbol id="arrow-down" viewBox="0 0 24 24"><path d="M19 15l-1.41-1.41L13 18.17V2h-2v16.17l-4.59-4.59L5 15l7 7 7-7z"/></symbol><symbol id="arrow-down-right" viewBox="0 0 24 24"><path d="M19.5 9.5h-2v6.59L5.91 4.5 4.5 5.91 16.09 17.5H9.5v2h10v-10z"/></symbol><symbol id="arrow-down-left" viewBox="0 0 24 24"><path d="M14.5 19.5v-2H7.91L19.5 5.91 18.09 4.5 6.5 16.09V9.5h-2v10h10z"/></symbol><symbol id="arrow-left" viewBox="0 0 24 24"><path d="M9 19l1.41-1.41L5.83 13H22v-2H5.83l4.59-4.59L9 5l-7 7 7 7z"/></symbol><symbol id="arrow-right" viewBox="0 0 24 24"><path d="M15 5l-1.41 1.41L18.17 11H2v2h16.17l-4.59 4.59L15 19l7-7-7-7z"/></symbol><symbol id="arrow-up" viewBox="0 0 24 24"><path d="M5 9l1.41 1.41L11 5.83V22h2V5.83l4.59 4.59L19 9l-7-7-7 7z"/></symbol><symbol id="arrow-up-left" viewBox="0 0 24 24"><path d="M4.5 14.5h2V7.91L18.09 19.5l1.41-1.41L7.91 6.5h6.59v-2h-10v10z"/></symbol><symbol id="arrow-up-right" viewBox="0 0 24 24"><path d="M9.5 4.5v2h6.59L4.5 18.09l1.41 1.41L17.5 7.91v6.59h2v-10h-10z"/></symbol></svg>