<svg xmlns="http://www.w3.org/2000/svg"><symbol id="arrow-down" viewBox="0 0 16 16"><path d="M12.665 10l-.94-.94-3.06 3.054V1.334H7.332v10.78l-3.06-3.06-.94.947 4.667 4.666 4.666-4.666z"/></symbol><symbol id="arrow-left" viewBox="0 0 14 10"><path d="M4.999 9.667l.94-.94-3.054-3.06h10.78V4.334H2.885l3.06-3.06L5 .334.332 5.001l4.667 4.666z"/></symbol><symbol id="arrow-down-left" viewBox="0 0 16 16"><path d="M9.667 13v-1.333H5.273L13 3.94 12.06 3l-7.727 7.727V6.333H3V13h6.667z"/></symbol><symbol id="arrow-up-left" viewBox="0 0 16 16"><path d="M3 9.667h1.333V5.273L12.06 13l.94-.94-7.727-7.727h4.394V3H3v6.667z"/></symbol><symbol id="arrow-up" viewBox="0 0 16 16"><path d="M3.332 6l.94.94 3.06-3.053v10.78h1.333V3.887l3.06 3.06.94-.946L8 1.334 3.332 6.001z"/></symbol><symbol id="arrow-down-right" viewBox="0 0 16 16"><path d="M13 6.333h-1.333v4.394L3.94 3 3 3.94l7.727 7.727H6.333V13H13V6.333z"/></symbol><symbol id="blockquote-icon-2"><path d="M9.188-.125L13 0l-1 6-4 1-2 8h7v15H0a2001.25 2001.25 0 0 1-.125-11.75c-.017-1.111-.034-2.222-.05-3.367l-.02-3.242-.032-2.984C.01 5.876.465 4.315 2 2 5.089-.06 5.71-.239 9.188-.125z"/><path d="M30 0v6l-4 1-2 8h6v15H18a2001.25 2001.25 0 0 1-.125-11.75c-.017-1.111-.034-2.222-.05-3.367l-.02-3.242-.032-2.984C18.01 5.876 18.465 4.315 20 2c3.644-2.43 5.712-2.162 10-2z"/></symbol><symbol id="blockquote-icon-1"><path d="M17 0h13c.054 3.917.094 7.833.125 11.75.017 1.111.034 2.222.05 3.367l.02 3.242.032 2.984C29.99 24.124 29.535 25.685 28 28c-3.089 2.06-3.71 2.239-7.188 2.125L17 30l1-6 4-1 2-8h-7V0zM0 0h12c.054 3.917.094 7.833.125 11.75.017 1.111.034 2.222.05 3.367l.02 3.242.032 2.984C11.99 24.124 11.535 25.685 10 28c-3.644 2.43-5.712 2.162-10 2v-6l4-1 2-8H0V0z"/></symbol><symbol id="arrow-up-right" viewBox="0 0 16 16"><path d="M6.333 3v1.333h4.394L3 12.06l.94.94 7.727-7.727v4.394H13V3H6.333z"/></symbol><symbol id="arrow-right" viewBox="0 0 16 16"><path d="M9.999 3.334l-.94.94 3.053 3.06H1.332v1.333h10.78l-3.06 3.06.947.94 4.666-4.666L10 3.334z"/></symbol><symbol id="card-curve-img-1" viewBox="0 0 25 25"><path d="M23 25H0V2c0 12.703 10.297 23 23 23z"/></symbol><symbol id="card-curve-img-2" viewBox="0 0 25 25"><path d="M23 25H0V2c0 12.703 10.297 23 23 23z"/></symbol><symbol id="email-icon" viewBox="0 0 512 512"><style>.st0{fill:#000}</style><path d="M510.678 112.275a70.823 70.823 0 0 0-14.662-31.054c-1.518-1.915-3.104-3.63-4.823-5.345-12.755-12.818-30.657-20.814-50.214-20.814H71.021c-19.557 0-37.395 7.996-50.21 20.814-1.715 1.715-3.301 3.43-4.823 5.345-7.203 8.788-12.358 19.428-14.602 31.054A68.69 68.69 0 0 0 0 126.087V385.92c0 9.968 2.114 19.55 5.884 28.203 3.497 8.26 8.653 15.734 14.926 22.001a77.4 77.4 0 0 0 4.892 4.494 70.957 70.957 0 0 0 45.319 16.32h369.958c17.18 0 33.108-6.145 45.323-16.384 1.718-1.386 3.305-2.844 4.891-4.43 6.27-6.267 11.425-13.741 14.994-22.001v-.064c3.769-8.653 5.812-18.171 5.812-28.138V126.087a72.986 72.986 0 0 0-1.321-13.812zM46.509 101.571c6.345-6.338 14.866-10.175 24.512-10.175h369.958c9.646 0 18.242 3.837 24.512 10.175a34.402 34.402 0 0 1 3.112 3.637L274.696 274.203c-5.348 4.687-11.954 7.002-18.696 7.002-6.674 0-13.276-2.315-18.695-7.002L43.472 105.136c.858-1.25 1.915-2.436 3.037-3.565zM36.334 385.92V142.735L176.658 265.15 36.405 387.435c-.071-.464-.071-.986-.071-1.515zm404.645 34.677H71.021c-6.281 0-12.158-1.651-17.174-4.552l147.978-128.959 13.815 12.018c11.561 10.046 26.028 15.134 40.36 15.134a61.64 61.64 0 0 0 40.432-15.134l13.808-12.018 147.92 128.959c-5.023 2.901-10.9 4.552-17.181 4.552zm34.687-34.677c0 .529 0 1.051-.068 1.515L335.346 265.221 475.666 142.8v243.12z" class="st0"/></symbol><symbol id="check-icon" viewBox="0 0 24 24"><path d="M20 6L9 17l-5-5"/></symbol><symbol id="chip-radius-2" viewBox="0 0 15 15"><g clip-path="url(#a)"><path d="M-1 0h16v16C15 7.163 7.837 0-1 0z"/></g><defs><clipPath id="a"><path d="M0 0h15v15H0z" transform="rotate(180 7.5 7.5)"/></clipPath></defs></symbol><symbol id="fb-icon" viewBox="0 0 13 24"><path d="M8.585 13.5V24l-4.696-.001v-10.5H.074V9.157H3.89v-3.31C3.89 2.08 6.132 0 9.564 0c1.643 0 3.363.294 3.363.294v3.698h-1.894c-1.866 0-2.448 1.158-2.448 2.347v2.818h4.168l-.667 4.344H8.585z"/></symbol><symbol id="chip-radius-1" viewBox="0 0 15 15"><g clip-path="url(#a)"><path d="M0 0h15v15C15 6.716 8.284 0 0 0z"/></g><defs><clipPath id="a"><path d="M0 0h15v15H0z" transform="rotate(180 7.5 7.5)"/></clipPath></defs></symbol><symbol id="footer-icon-chip-bg-icon-2" viewBox="0 0 25 25"><path d="M0 23V0h23C10.297 0 0 10.297 0 23z"/></symbol><symbol id="github-icon" viewBox="0 0 25 24"><path fill-rule="evenodd" d="M12.303 0C5.51 0 0 5.508 0 12.303c0 5.436 3.525 10.048 8.413 11.675.616.114.841-.266.841-.591 0-.294-.011-1.262-.016-2.29-3.423.743-4.145-1.453-4.145-1.453-.56-1.422-1.366-1.8-1.366-1.8-1.117-.764.084-.747.084-.747 1.235.087 1.885 1.268 1.885 1.268 1.098 1.88 2.878 1.337 3.58 1.022.111-.796.43-1.338.782-1.646-2.732-.31-5.605-1.365-5.605-6.08 0-1.343.48-2.44 1.268-3.302-.128-.31-.55-1.561.119-3.256 0 0 1.033-.33 3.384 1.26a11.8 11.8 0 0 1 3.08-.413c1.045.005 2.098.141 3.081.414 2.348-1.592 3.38-1.261 3.38-1.261.67 1.695.249 2.945.122 3.256.788.861 1.266 1.96 1.266 3.303 0 4.725-2.878 5.766-5.618 6.07.441.382.835 1.131.835 2.278 0 1.647-.014 2.972-.014 3.377 0 .327.221.711.845.59 4.886-1.629 8.407-6.239 8.407-11.673C24.607 5.51 19.098 0 12.303 0z" clip-rule="evenodd"/><path d="M4.66 17.666c-.027.062-.123.08-.211.038-.09-.04-.14-.124-.11-.184.026-.063.122-.08.211-.038.09.039.14.123.11.184zm.497.555c-.058.054-.173.029-.25-.056-.082-.087-.096-.201-.037-.256.06-.054.172-.028.253.058.08.085.096.199.034.254zm.487.709c-.076.052-.199.003-.275-.106-.076-.11-.076-.24.002-.293.076-.052.198-.005.275.104.075.11.075.242-.002.295zm.664.684c-.067.075-.21.054-.315-.047-.108-.1-.138-.24-.07-.315.069-.075.213-.054.319.047.106.1.138.24.066.315zm.918.396c-.03.097-.168.14-.308.1-.14-.042-.23-.155-.202-.252.029-.098.168-.143.309-.099.138.041.23.154.2.251zm1.006.076c.003.101-.115.185-.261.187-.147.003-.267-.079-.268-.178 0-.102.116-.186.263-.189.146-.003.266.08.266.18zm.938-.16c.017.099-.085.201-.23.228-.143.027-.275-.035-.294-.133-.017-.102.087-.203.23-.23.144-.026.275.034.293.135z"/></symbol><symbol id="hero-inner-radious-1" viewBox="0 0 16 14"><path d="M0 14C0 5.09 8.667 0 16 0H0v14z"/></symbol><symbol id="footer-icon-chip-bg-icon-1" viewBox="0 0 25 25"><path d="M0 23V0h23C10.297 0 0 10.297 0 23z"/></symbol><symbol id="instagram-icon" viewBox="0 0 24 24"><path d="M12 2.162c3.204 0 3.584.012 4.849.07 1.308.06 2.655.358 3.608 1.311.962.962 1.251 2.296 1.311 3.608.058 1.265.07 1.645.07 4.849s-.012 3.584-.07 4.849c-.059 1.301-.364 2.661-1.311 3.608-.962.962-2.295 1.251-3.608 1.311-1.265.058-1.645.07-4.849.07s-3.584-.012-4.849-.07c-1.291-.059-2.669-.371-3.608-1.311-.957-.957-1.251-2.304-1.311-3.608-.058-1.265-.07-1.645-.07-4.849s.012-3.584.07-4.849c.059-1.296.367-2.664 1.311-3.608.96-.96 2.299-1.251 3.608-1.311 1.265-.058 1.645-.07 4.849-.07zM12 0C8.741 0 8.332.014 7.052.072 5.197.157 3.355.673 2.014 2.014.668 3.36.157 5.198.072 7.052.014 8.332 0 8.741 0 12c0 3.259.014 3.668.072 4.948.085 1.853.603 3.7 1.942 5.038 1.345 1.345 3.186 1.857 5.038 1.942C8.332 23.986 8.741 24 12 24c3.259 0 3.668-.014 4.948-.072 1.854-.085 3.698-.602 5.038-1.942 1.347-1.347 1.857-3.184 1.942-5.038.058-1.28.072-1.689.072-4.948 0-3.259-.014-3.668-.072-4.948-.085-1.855-.602-3.698-1.942-5.038C20.643.671 18.797.156 16.948.072 15.668.014 15.259 0 12 0z"/><path d="M12 5.838a6.162 6.162 0 1 0 0 12.324 6.162 6.162 0 0 0 0-12.324zM12 16a4 4 0 1 1 0-8 4 4 0 0 1 0 8zm6.407-8.966a1.44 1.44 0 1 0 0-2.88 1.44 1.44 0 0 0 0 2.88z"/></symbol><symbol id="linkdin-icon" viewBox="0 0 24 24"><path d="M20.45 20.45h-3.557v-5.569c0-1.328-.023-3.037-1.85-3.037-1.851 0-2.135 1.446-2.135 2.941v5.666H9.353V8.997h3.414v1.565h.047a3.743 3.743 0 0 1 3.369-1.85c3.604 0 4.268 2.371 4.268 5.455l-.001 6.284zM5.34 7.432a2.063 2.063 0 1 1 0-4.127 2.063 2.063 0 0 1 0 4.127zm1.777 13.02h-3.56V8.997h3.56v11.454zM22.222 0H1.77A1.752 1.752 0 0 0 0 1.731v20.537A1.752 1.752 0 0 0 1.77 24h20.452A1.756 1.756 0 0 0 24 22.268V1.73A1.756 1.756 0 0 0 22.222 0"/></symbol><symbol id="whatsapp-icon" viewBox="0 0 24 24"><path fill-rule="evenodd" d="M20.406 3.488A11.817 11.817 0 0 0 11.993 0C5.438 0 .103 5.334.1 11.892a11.87 11.87 0 0 0 1.588 5.946L0 24l6.304-1.654a11.88 11.88 0 0 0 5.683 1.448h.005c6.554 0 11.89-5.335 11.893-11.893a11.817 11.817 0 0 0-3.479-8.413zm-8.413 18.297h-.004a9.86 9.86 0 0 1-5.031-1.378l-.361-.214-3.741.981.999-3.648-.235-.374a9.855 9.855 0 0 1-1.511-5.26c.002-5.45 4.437-9.884 9.889-9.884 2.64 0 5.122 1.03 6.988 2.898a9.827 9.827 0 0 1 2.892 6.993c-.003 5.452-4.437 9.886-9.885 9.886zm5.422-7.403c-.297-.149-1.758-.868-2.031-.967-.272-.099-.47-.149-.669.148-.199.297-.767.967-.941 1.166-.173.198-.347.223-.644.074-.297-.149-1.255-.462-2.39-1.475-.883-.788-1.48-1.761-1.653-2.059-.173-.298-.018-.458.13-.606.134-.133.297-.347.446-.521.15-.172.199-.296.299-.495.099-.198.05-.372-.025-.521-.075-.148-.669-1.611-.916-2.206-.241-.58-.486-.501-.669-.51-.173-.009-.371-.01-.57-.01-.198 0-.52.074-.792.372S5.95 7.789 5.95 9.251c0 1.463 1.065 2.876 1.213 3.074.148.198 2.095 3.2 5.076 4.487.709.306 1.263.489 1.694.626.712.226 1.36.194 1.872.118.571-.085 1.758-.719 2.006-1.413.248-.694.248-1.29.173-1.413-.074-.125-.272-.199-.569-.348z" clip-rule="evenodd"/></symbol><symbol id="x-icon" viewBox="0 0 27 24"><path d="M18.357 24l-6.422-8.388L4.598 24H.519l9.513-10.875L0 0h8.4l5.797 7.668L20.905 0h4.074l-8.895 10.165 10.465 13.833-8.192.002z"/><path d="M4.748 2.31l14.728 19.257h2.257L7.173 2.31H4.747z"/></symbol><symbol id="hero-inner-radious-2" viewBox="0 0 15 15"><path d="M0 0c9.545 0 15 8.125 15 15V0H0z"/></symbol></svg>
