<svg xmlns="http://www.w3.org/2000/svg"><symbol id="envelope-outline-thin" viewBox="0 0 24 24"><path d="M21.951 6.169a2.719 2.719 0 0 0-.721-1.38A2.603 2.603 0 0 0 19.373 4H4.627a2.577 2.577 0 0 0-2.036.992c-.272.34-.459.747-.54 1.178-.034.17-.051.345-.051.522v10.616c0 .37.073.729.218 1.07a2.66 2.66 0 0 0 .732 1.003c.47.4 1.066.619 1.677.619h14.746a2.575 2.575 0 0 0 1.857-.79c.228-.232.408-.5.538-.794l.017-.042A2.7 2.7 0 0 0 22 17.308V6.692c0-.175-.017-.351-.049-.523zm-18.59-.45a1.557 1.557 0 0 1 1.266-.652h14.746a1.546 1.546 0 0 1 1.265.647l.113.156-7.871 7.03a1.315 1.315 0 0 1-1.76 0L3.257 5.87l.103-.153zm-.316 11.683a.66.66 0 0 1-.005-.094V6.912l6.108 5.462-6.046 5.403-.057-.375zM20.16 18.72c-.236.14-.509.214-.787.214H4.627c-.279 0-.55-.074-.787-.214l-.247-.147 6.247-5.58.685.61c.41.366.934.567 1.475.567a2.22 2.22 0 0 0 1.478-.567l.684-.61 6.245 5.58-.247.147zm.8-1.412a.68.68 0 0 1-.005.092l-.054.38-6.049-5.403 6.108-5.462v10.393z"/></symbol><symbol id="card-curve-img-2" viewBox="0 0 25 25"><path d="M23 25H0V2c0 12.703 10.297 23 23 23z"/></symbol><symbol id="chip-radius-1" viewBox="0 0 15 15"><g clip-path="url(#a)"><path d="M0 0h15v15C15 6.716 8.284 0 0 0z"/></g></symbol><symbol id="card-curve-img-1" viewBox="0 0 25 25"><path d="M23 25H0V2c0 12.703 10.297 23 23 23z"/></symbol><symbol id="footer-icon-chip-bg-icon-2" viewBox="0 0 25 25"><path d="M0 23V0h23C10.297 0 0 10.297 0 23z"/></symbol><symbol id="footer-icon-chip-bg-icon-1" viewBox="0 0 25 25"><path d="M0 23V0h23C10.297 0 0 10.297 0 23z"/></symbol><symbol id="chip-radius-2" viewBox="0 0 15 15"><g clip-path="url(#a)"><path d="M-1 0h16v16C15 7.163 7.837 0-1 0z"/></g></symbol><symbol id="hero-inner-radious-1" viewBox="0 0 16 14"><path d="M0 14C0 5.09 8.667 0 16 0H0v14z"/></symbol><symbol id="github" viewBox="0 0 24 24"><path fill-rule="evenodd" d="M12 2C6.477 2 2 6.36 2 11.74c0 4.304 2.865 7.955 6.838 9.243.5.09.683-.211.683-.469 0-.232-.009-.999-.013-1.813-2.782.59-3.369-1.15-3.369-1.15-.455-1.125-1.11-1.424-1.11-1.424-.907-.605.068-.592.068-.592 1.004.069 1.533 1.004 1.533 1.004.891 1.488 2.339 1.058 2.91.81.09-.63.349-1.06.635-1.304-2.221-.246-4.556-1.08-4.556-4.813 0-1.063.39-1.933 1.03-2.614-.103-.246-.446-1.237.097-2.578 0 0 .84-.262 2.751.998A9.83 9.83 0 0 1 12 6.71a9.86 9.86 0 0 1 2.505.328c1.908-1.26 2.747-.998 2.747-.998.544 1.341.201 2.332.098 2.578a3.71 3.71 0 0 1 1.03 2.614c0 3.741-2.34 4.565-4.566 4.806.358.302.678.895.678 1.804 0 1.303-.012 2.352-.012 2.672 0 .26.18.564.687.468 3.972-1.29 6.833-4.94 6.833-9.241C22 6.361 17.522 2 12 2z" clip-rule="evenodd"/></symbol><symbol id="hero-inner-radious-2" viewBox="0 0 15 15"><path d="M0 0c9.545 0 15 8.125 15 15V0H0z"/></symbol><symbol id="check" viewBox="0 0 24 24"><path fill-rule="evenodd" d="M20.165 5L9.404 15.441l-5.57-5.404L2 11.816 9.404 19 22 6.78 20.165 5z" clip-rule="evenodd"/></symbol><symbol id="linkedin" viewBox="0 0 24 24"><path d="M19.041 19.042h-2.963v-4.641c0-1.107-.02-2.531-1.542-2.531-1.543 0-1.78 1.205-1.78 2.451v4.721H9.794V9.498h2.845v1.304h.04a3.12 3.12 0 0 1 2.806-1.542c3.004 0 3.557 1.976 3.557 4.546v5.236zM6.45 8.192a1.72 1.72 0 1 1 0-3.438 1.72 1.72 0 0 1 0 3.439zm1.481 10.85H4.965V9.498H7.93v9.544zM20.52 2.002H3.475A1.46 1.46 0 0 0 2 3.442v17.114A1.46 1.46 0 0 0 3.475 22H20.52c.807.01 1.47-.636 1.481-1.443V3.442A1.463 1.463 0 0 0 20.519 2"/></symbol><symbol id="instagram" viewBox="0 0 24 24"><path d="M12 3.802c2.67 0 2.987.01 4.04.058 1.09.05 2.213.298 3.008 1.092.801.802 1.042 1.914 1.092 3.007.048 1.054.058 1.371.058 4.041 0 2.67-.01 2.987-.058 4.04-.05 1.085-.303 2.218-1.093 3.008-.801.801-1.912 1.042-3.006 1.092-1.054.048-1.371.058-4.041.058-2.67 0-2.987-.01-4.04-.058-1.077-.05-2.225-.31-3.008-1.093-.797-.797-1.042-1.92-1.092-3.006-.048-1.054-.058-1.371-.058-4.041 0-2.67.01-2.987.058-4.04.05-1.08.306-2.22 1.092-3.008.8-.8 1.916-1.042 3.007-1.092C9.013 3.812 9.33 3.802 12 3.802zM12 2c-2.716 0-3.057.012-4.123.06-1.546.07-3.081.5-4.199 1.618C2.557 4.8 2.131 6.332 2.06 7.877 2.012 8.943 2 9.284 2 12s.012 3.057.06 4.123c.07 1.544.502 3.084 1.618 4.199 1.121 1.12 2.655 1.547 4.199 1.618 1.066.048 1.407.06 4.123.06s3.057-.012 4.123-.06c1.545-.07 3.082-.502 4.199-1.618 1.122-1.123 1.547-2.654 1.618-4.199.048-1.066.06-1.407.06-4.123s-.012-3.057-.06-4.123c-.07-1.546-.502-3.082-1.618-4.199-1.12-1.119-2.658-1.548-4.199-1.618C15.057 2.012 14.716 2 12 2z"/><path d="M12 6.866a5.135 5.135 0 1 0 0 10.27 5.135 5.135 0 0 0 0-10.27zm0 8.468a3.334 3.334 0 1 1 0-6.667 3.334 3.334 0 0 1 0 6.667zm5.338-7.472a1.2 1.2 0 1 0 0-2.4 1.2 1.2 0 0 0 0 2.4z"/></symbol><symbol id="quote-left" viewBox="0 0 24 24"><path d="M22.155 2.022l-.478 3.5c-1.242-.096-2.15.16-2.723.766-.573.607-.924 1.422-1.051 2.445a18.666 18.666 0 0 0-.096 3.307h4.348v10.113h-8.17v-12.03c0-2.94.732-5.145 2.198-6.615 1.497-1.47 3.488-1.965 5.972-1.486zm-12.137 0l-.477 3.5c-1.243-.096-2.15.16-2.724.766-.573.607-.924 1.422-1.051 2.445a18.662 18.662 0 0 0-.096 3.307h4.348v10.113h-8.17v-12.03c0-2.94.732-5.145 2.198-6.615 1.497-1.47 3.488-1.965 5.972-1.486z"/></symbol><symbol id="facebook" viewBox="0 0 24 24"><path d="M13.284 13.25V22l-4.019-.001v-8.75H6V9.63h3.265V6.872C9.265 3.734 11.185 2 14.122 2 15.528 2 17 2.245 17 2.245v3.082h-1.621c-1.597 0-2.095.964-2.095 1.955v2.349h3.567l-.57 3.62h-2.997z"/></symbol><symbol id="phone-outline" viewBox="0 0 24 24"><path d="M7.155 3.102L9.52 2l3.361 6.575-2.266 1.118c-.447 1.049 1.796 5.24 2.743 5.31a207.56 207.56 0 0 1 2.222-1.107l3.42 6.61s-2.3 1.128-2.374 1.163C10.086 24.662.734 6.454 7.155 3.102zm1.604 1.061l-.85.42c-4.405 2.302 3.474 17.655 8.026 15.572l.807-.395-1.889-3.652-.854.416c-2.63 1.29-6.873-6.849-4.205-8.281l.838-.415-1.873-3.665z"/></symbol><symbol id="whatsapp" viewBox="0 0 24 24"><path fill-rule="evenodd" d="M19.087 4.907A9.919 9.919 0 0 0 12.042 2c-5.489 0-9.956 4.445-9.958 9.91a9.85 9.85 0 0 0 1.33 4.955L2 22l5.279-1.378a9.985 9.985 0 0 0 4.758 1.206h.004c5.488 0 9.956-4.445 9.959-9.91a9.823 9.823 0 0 0-2.913-7.011zm-7.045 15.247h-.003a8.285 8.285 0 0 1-4.213-1.148l-.302-.178-3.133.817.837-3.04-.197-.312a8.183 8.183 0 0 1-1.265-4.383c.002-4.542 3.715-8.237 8.28-8.237a8.24 8.24 0 0 1 5.852 2.415 8.17 8.17 0 0 1 2.421 5.828c-.002 4.543-3.715 8.238-8.277 8.238zm4.54-6.169c-.248-.124-1.472-.723-1.7-.806-.228-.082-.394-.124-.56.123-.167.248-.643.806-.788.972-.145.165-.291.186-.54.062-.248-.124-1.05-.385-2-1.23-.74-.656-1.24-1.467-1.385-1.715-.145-.248-.015-.382.109-.505.112-.111.249-.29.373-.434.126-.144.167-.247.25-.413.084-.165.043-.31-.02-.434-.063-.123-.56-1.343-.767-1.838-.202-.484-.407-.418-.56-.425a9.63 9.63 0 0 0-.478-.009.914.914 0 0 0-.663.31c-.228.249-.87.848-.87 2.066 0 1.22.891 2.397 1.015 2.562.124.165 1.754 2.666 4.25 3.739.594.255 1.058.407 1.419.522.596.188 1.139.161 1.567.098.478-.07 1.472-.6 1.68-1.177.208-.579.208-1.075.145-1.178-.062-.104-.228-.166-.477-.29z" clip-rule="evenodd"/></symbol><symbol id="location-arrow-outline" viewBox="0 0 24 24"><path d="M19.154 4.848l-4.328 11.56-1.453-5.782-5.776-1.444 11.557-4.335zM22 2L2 9.5 12 12l2.512 10L22 2z"/></symbol><symbol id="arrow-down" viewBox="0 0 16 16"><path d="M12.665 10l-.94-.94-3.06 3.054V1.334H7.332v10.78l-3.06-3.06-.94.947 4.667 4.666 4.666-4.666z"/></symbol><symbol id="x-twitter" viewBox="0 0 24 24"><path fill-rule="evenodd" d="M12.695 8.751L17.748 3h3.069l-6.7 7.624L22 20.998 15.828 21l-4.837-6.29L5.464 21H2.39l7.167-8.156L2 3h6.328l4.367 5.751zm3.978 10.424h1.7L7.404 4.733H5.578l11.095 14.442z" clip-rule="evenodd"/></symbol><symbol id="quote-right" viewBox="0 0 24 24"><path d="M1.69 21.823l.478-3.5c1.242.097 2.15-.159 2.724-.766.573-.607.924-1.422 1.051-2.445.128-1.023.16-2.125.096-3.307H1.69V1.69h8.172v12.032c0 2.94-.733 5.145-2.198 6.615-1.498 1.47-3.489 1.965-5.974 1.486zm12.138 0l.478-3.5c1.243.097 2.15-.159 2.724-.766.573-.607.924-1.422 1.051-2.445a18.66 18.66 0 0 0 .096-3.307h-4.349V1.69H22v12.032c0 2.94-.733 5.145-2.198 6.615-1.498 1.47-3.489 1.965-5.974 1.486z"/></symbol><symbol id="arrow-left" viewBox="0 0 14 10"><path d="M4.999 9.667l.94-.94-3.054-3.06h10.78V4.334H2.885l3.06-3.06L5 .334.332 5.001l4.667 4.666z"/></symbol><symbol id="star" viewBox="0 0 24 24"><path d="M11.67 18.494a.589.589 0 0 1 .66 0l5.126 3.403c.488.324 1.087-.163.957-.777l-1.356-6.394a.763.763 0 0 1 .207-.706l4.51-4.298c.434-.413.204-1.201-.364-1.254l-5.95-.555a.652.652 0 0 1-.538-.431l-2.33-6.049c-.223-.577-.961-.577-1.184 0l-2.33 6.049a.653.653 0 0 1-.538.43l-5.95.556c-.568.053-.798.841-.365 1.254l4.51 4.298a.763.763 0 0 1 .208.706L5.587 21.12c-.13.614.469 1.1.957.777l5.126-3.403z"/></symbol><symbol id="arrow-down-right" viewBox="0 0 16 16"><path d="M13 6.333h-1.333v4.394L3.94 3 3 3.94l7.727 7.727H6.333V13H13V6.333z"/></symbol><symbol id="arrow-up" viewBox="0 0 16 16"><path d="M3.332 6l.94.94 3.06-3.053v10.78h1.333V3.887l3.06 3.06.94-.946L8 1.334 3.332 6.001z"/></symbol><symbol id="arrow-down-left" viewBox="0 0 16 16"><path d="M9.667 13v-1.333H5.273L13 3.94 12.06 3l-7.727 7.727V6.333H3V13h6.667z"/></symbol><symbol id="arrow-right" viewBox="0 0 16 16"><path d="M9.999 3.334l-.94.94 3.053 3.06H1.332v1.333h10.78l-3.06 3.06.947.94 4.666-4.666L10 3.334z"/></symbol><symbol id="arrow-up-right" viewBox="0 0 16 16"><path d="M6.333 3v1.333h4.394L3 12.06l.94.94 7.727-7.727v4.394H13V3H6.333z"/></symbol><symbol id="arrow-up-left" viewBox="0 0 16 16"><path d="M3 9.667h1.333V5.273L12.06 13l.94-.94-7.727-7.727h4.394V3H3v6.667z"/></symbol></svg>
