<svg xmlns="http://www.w3.org/2000/svg"><symbol id="check" viewBox="0 0 24 24"><path fill-rule="evenodd" d="M20.165 5L9.404 15.441l-5.57-5.404L2 11.816 9.404 19 22 6.78 20.165 5z" clip-rule="evenodd"/></symbol><symbol id="card-curve-img-2" viewBox="0 0 25 25"><path d="M23 25H0V2c0 12.703 10.297 23 23 23z"/></symbol><symbol id="facebook" viewBox="0 0 24 24"><path d="M13.284 13.25V22l-4.019-.001v-8.75H6V9.63h3.265V6.872C9.265 3.734 11.185 2 14.122 2 15.528 2 17 2.245 17 2.245v3.082h-1.621c-1.597 0-2.095.964-2.095 1.955v2.349h3.567l-.57 3.62h-2.997z"/></symbol><symbol id="envelope-outline-thin" viewBox="0 0 24 24"><path d="M21.951 6.169a2.719 2.719 0 0 0-.721-1.38A2.603 2.603 0 0 0 19.373 4H4.627a2.577 2.577 0 0 0-2.036.992c-.272.34-.459.747-.54 1.178-.034.17-.051.345-.051.522v10.616c0 .37.073.729.218 1.07a2.66 2.66 0 0 0 .732 1.003c.47.4 1.066.619 1.677.619h14.746a2.575 2.575 0 0 0 1.857-.79c.228-.232.408-.5.538-.794l.017-.042A2.7 2.7 0 0 0 22 17.308V6.692c0-.175-.017-.351-.049-.523zm-18.59-.45a1.557 1.557 0 0 1 1.266-.652h14.746a1.546 1.546 0 0 1 1.265.647l.113.156-7.871 7.03a1.315 1.315 0 0 1-1.76 0L3.257 5.87l.103-.153zm-.316 11.683a.66.66 0 0 1-.005-.094V6.912l6.108 5.462-6.046 5.403-.057-.375zM20.16 18.72c-.236.14-.509.214-.787.214H4.627c-.279 0-.55-.074-.787-.214l-.247-.147 6.247-5.58.685.61c.41.366.934.567 1.475.567a2.22 2.22 0 0 0 1.478-.567l.684-.61 6.245 5.58-.247.147zm.8-1.412a.68.68 0 0 1-.005.092l-.054.38-6.049-5.403 6.108-5.462v10.393z"/></symbol><symbol id="card-curve-img-1" viewBox="0 0 25 25"><path d="M23 25H0V2c0 12.703 10.297 23 23 23z"/></symbol><symbol id="chip-radius-2" viewBox="0 0 15 15"><g clip-path="url(#a)"><path d="M-1 0h16v16C15 7.163 7.837 0-1 0z"/></g></symbol><symbol id="chip-radius-1" viewBox="0 0 15 15"><g clip-path="url(#a)"><path d="M0 0h15v15C15 6.716 8.284 0 0 0z"/></g></symbol><symbol id="github" viewBox="0 0 24 24"><path fill-rule="evenodd" d="M12 2C6.477 2 2 6.36 2 11.74c0 4.304 2.865 7.955 6.838 9.243.5.09.683-.211.683-.469 0-.232-.009-.999-.013-1.813-2.782.59-3.369-1.15-3.369-1.15-.455-1.125-1.11-1.424-1.11-1.424-.907-.605.068-.592.068-.592 1.004.069 1.533 1.004 1.533 1.004.891 1.488 2.339 1.058 2.91.81.09-.63.349-1.06.635-1.304-2.221-.246-4.556-1.08-4.556-4.813 0-1.063.39-1.933 1.03-2.614-.103-.246-.446-1.237.097-2.578 0 0 .84-.262 2.751.998A9.83 9.83 0 0 1 12 6.71a9.86 9.86 0 0 1 2.505.328c1.908-1.26 2.747-.998 2.747-.998.544 1.341.201 2.332.098 2.578a3.71 3.71 0 0 1 1.03 2.614c0 3.741-2.34 4.565-4.566 4.806.358.302.678.895.678 1.804 0 1.303-.012 2.352-.012 2.672 0 .26.18.564.687.468 3.972-1.29 6.833-4.94 6.833-9.241C22 6.361 17.522 2 12 2z" clip-rule="evenodd"/></symbol><symbol id="footer-icon-chip-bg-icon-2" viewBox="0 0 25 25"><path d="M0 23V0h23C10.297 0 0 10.297 0 23z"/></symbol><symbol id="footer-icon-chip-bg-icon-1" viewBox="0 0 25 25"><path d="M0 23V0h23C10.297 0 0 10.297 0 23z"/></symbol><symbol id="office" viewBox="0 0 23 25"><path fill="#202020" d="M20.94 22.857L17.255 0l-1.148 7.709L14.24.835l-.386 7.717-2.138-3.998-.341 6.197-2.027-2.706-.279 5.576-2.311-1.519-.167 4.728-2.143-1.07L4 20.492l-2.143-.618-.578 2.984H0V25h22.642v-2.143H20.94zM16.876 5.758l2.078 17.099h-.558L16.669 8.524l.207-2.766zm-2.304.14l3.235 16.959h-.087l-3.333-12.605.185-4.353zm-2.14 2.005l4.108 14.954h-.022l-4.53-11.083.444-3.87zM9.801 9.792l5.482 13.065h-.068l-5.64-8.387.226-4.678zm-2.604 3.04l6.433 10.025h-.156L7.06 17.144l.137-4.311zm-2.371 3.551l6.83 6.474h-.52l-6.704-2.28.394-4.194zM2.29 20.486l7.187 2.348H2.13l.16-2.348z"/></symbol><symbol id="hero-inner-radious-2" viewBox="0 0 15 15"><path d="M0 0c9.545 0 15 8.125 15 15V0H0z"/></symbol><symbol id="hero-inner-radious-1" viewBox="0 0 16 14"><path d="M0 14C0 5.09 8.667 0 16 0H0v14z"/></symbol><symbol id="instagram" viewBox="0 0 24 24"><path d="M12 3.802c2.67 0 2.987.01 4.04.058 1.09.05 2.213.298 3.008 1.092.801.802 1.042 1.914 1.092 3.007.048 1.054.058 1.371.058 4.041 0 2.67-.01 2.987-.058 4.04-.05 1.085-.303 2.218-1.093 3.008-.801.801-1.912 1.042-3.006 1.092-1.054.048-1.371.058-4.041.058-2.67 0-2.987-.01-4.04-.058-1.077-.05-2.225-.31-3.008-1.093-.797-.797-1.042-1.92-1.092-3.006-.048-1.054-.058-1.371-.058-4.041 0-2.67.01-2.987.058-4.04.05-1.08.306-2.22 1.092-3.008.8-.8 1.916-1.042 3.007-1.092C9.013 3.812 9.33 3.802 12 3.802zM12 2c-2.716 0-3.057.012-4.123.06-1.546.07-3.081.5-4.199 1.618C2.557 4.8 2.131 6.332 2.06 7.877 2.012 8.943 2 9.284 2 12s.012 3.057.06 4.123c.07 1.544.502 3.084 1.618 4.199 1.121 1.12 2.655 1.547 4.199 1.618 1.066.048 1.407.06 4.123.06s3.057-.012 4.123-.06c1.545-.07 3.082-.502 4.199-1.618 1.122-1.123 1.547-2.654 1.618-4.199.048-1.066.06-1.407.06-4.123s-.012-3.057-.06-4.123c-.07-1.546-.502-3.082-1.618-4.199-1.12-1.119-2.658-1.548-4.199-1.618C15.057 2.012 14.716 2 12 2z"/><path d="M12 6.866a5.135 5.135 0 1 0 0 10.27 5.135 5.135 0 0 0 0-10.27zm0 8.468a3.334 3.334 0 1 1 0-6.667 3.334 3.334 0 0 1 0 6.667zm5.338-7.472a1.2 1.2 0 1 0 0-2.4 1.2 1.2 0 0 0 0 2.4z"/></symbol><symbol id="quote-left" viewBox="0 0 24 24"><path d="M22.155 2.022l-.478 3.5c-1.242-.096-2.15.16-2.723.766-.573.607-.924 1.422-1.051 2.445a18.666 18.666 0 0 0-.096 3.307h4.348v10.113h-8.17v-12.03c0-2.94.732-5.145 2.198-6.615 1.497-1.47 3.488-1.965 5.972-1.486zm-12.137 0l-.477 3.5c-1.243-.096-2.15.16-2.724.766-.573.607-.924 1.422-1.051 2.445a18.662 18.662 0 0 0-.096 3.307h4.348v10.113h-8.17v-12.03c0-2.94.732-5.145 2.198-6.615 1.497-1.47 3.488-1.965 5.972-1.486z"/></symbol><symbol id="usa" viewBox="0 0 25 25"><path d="M22.049 2.198s.281-.715-.05-1.299c-.333-.584-1.057-.623-1.39-.613-.332.01-.503.03-.623-.05-.119-.081-.15-.253-.341-.122-.192.13-.221.373-.242.514-.02.14.019.443.019.443s-.361.148-.713.04c-.351-.112-.525-.302-.777-.23-.252.07-.086.713.15 1.016.281.363.541.49.692.682.15.191.183.316.394.406.215.088 2.88-.787 2.88-.787z"/><path fill="#fff" d="M21.574 1.334c-.123.139-.352-.01-.623-.192-.272-.181-.584-.302-.514-.472.07-.172.553-.131.814.03.196.12.485.452.323.634z"/><path d="M22.936 3.365s.472.189.482 1.156c.006.617-.553 1.642-2.395 1.742-2.048.111-2.576-.836-2.636-1.6-.06-.765.383-1.5.996-1.81.613-.31 2.515-.16 2.515-.16l1.038.672z"/><path fill="#202020" d="M23.215 3.436s.088-.243.135-.383c.025-.076.133-.348.011-.49-.12-.141-.492.123-.71-.014-.235-.149-.047-.668-.327-.824-.29-.164-.49.467-.91.422-.465-.05-.459-.68-.79-.69-.333-.01-.325.701-.688.77-.313.058-.64-.373-.918-.16-.217.166.002.56-.2.761-.2.201-.54.026-.66.168-.15.182.29.768.29.768l1.566-1.145 2.254.112.947.705z"/><path fill="#fff" d="M23.421 4.534s-.08-.469-.53-.949c-.407-.436-1.007-.84-2.04-.781-1.008.058-1.703.515-2.078.996-.34.437-.387.863-.387.863s-.51-2.31 2.494-2.414c2.924-.098 2.541 2.285 2.541 2.285z"/><path d="M13.027 19.348s-.18-.518-.329-.746c-.242-.373-.492-.51-.492-.51l-.092-3.608 1.748-1.511s3.14-1.483 3.079-1.621c-.055-.131-.307-.05-.573.072-.2.09-3.256 1.262-3.256 1.262l-.964-.897S14.064 7.92 14 7.881c-.055-.033-.15-.057-.268.101-.078.106-2.334 3.668-2.334 3.668l-1.183-.154s-.621-4.045-.76-4.039c-.213.01-.084 1.178-.031 1.975.045.673.262 2.646.262 2.646l-.838.291S6.1 9.504 6.046 9.54c-.055.037-.139.13.025.367s2.08 2.944 1.995 3.037c-.067.077-.16.258-.26.409-.11.164-.598.365-.598.365l-3.133-1.313s-.142.213.203.377c.346.164 2.938 1.559 2.938 1.559s-.293.504-.242 1.285c.05.783.226 1.098.226 1.098s-.808.883-.87 1.603a6.92 6.92 0 0 0 .058 1.473l-.018.197-2.469 1.055s-.318.213-.417.36c-.1.146-.584.87-.891 1.347-.307.476-.711 1.316-.658 1.37.052.056.146.052.279.052h7.852l3.925-.643-.964-4.19z"/><path fill="#202020" d="M5.008 21.97c.136-.479.336-1.01.324-1.135-.012-.125-.428-.36-.428-.36s.649-.546.877-.624c.229-.08.615-.092.615-.092s-.011-.273.295-.625c.307-.352.625-1.103.625-1.103l.295-.684.307 1.752s-.037.193-.033.318c.007.26.181.319.181.319s1.565.068 1.67.01c.12-.067.334-.104.31-.442-.013-.193-.195-.394-.335-.742-.098-.24-.024-.643.205-.848.228-.205.517-.388.564-.662.045-.273-.091-.49-.41-.83-.318-.342-.42-.7-.334-1.092.049-.223.055-.389-.025-.508-.115-.168-.29-.04-.483.21-.191.25-.539.741-.824.8-.285.059-.566-.152-.558-.684.01-.556.08-1.162.548-1.855.12-.176-.142-.488-.142-.488S6.037 9.642 6.023 9.587c-.011-.054.153-.113.242-.033.082.074 2.206 2.217 2.555 2.568.3-.255.652-.486 1.055-.638l.013-.006-.449-4.012s.14-.111.272.26c.115.33.707 3 .838 3.592a3.041 3.041 0 0 1 1.322.13l2.133-3.574s.12.03-.051.442c-.152.367-1.135 2.927-1.346 3.478.416.281.69.647.87 1.018.03.068.048.117.048.117l3.416-1.58s.096.15-.115.281c-.191.12-2.662 1.596-3.11 1.87.14.603.092 1.206.092 1.206l-.011.184-.211 1.293-.319 1.441s-.144.235-.386.295c-.24.06-.41.04-.41.04s-.188.242-.291.466c-.098.215-.215.545-.047.738.168.194.681.168.681.168s.58-.527.631-.554a81.47 81.47 0 0 1 1.326-.463l-.013-.309s.078-.605.257-.928c.18-.322.516-.566.516-.566s.04-.566.387-.773c.347-.207.437-.27.437-.27s.04-.889.387-1.61c.348-.72.773-1.378 1.326-2.962.555-1.584.72-2.229.824-2.834.104-.606.352-1.024.58-1.38.233-.36.545-.806.545-.806s-.308-.277-.34-.83c-.027-.47.342-1.152 1.288-1.185.947-.034 1.355.588 1.37 1.177.014.487-.372.786-.372.786s.517 1.06.506 1.267c-.014.207-.17.37-.235.434-.064.064-.36.338-.36.338l.044 2.025s-.153.193-.572.164c-.385-.027-.592-.574-.592-.574s-.067 1.086-.196 2.219c-.128 1.132-.502 2.605-.502 2.605l-1.533 3.156.348 2.86-.498 2.898s.053.793-.022.932c-.039.074-.146.066-.236.066l-8.705-.03s.158-.318.51-.398c.353-.08.603.034.728-.148s-.295-.648-.363-.717c-.068-.068-2.912-3.084-2.912-3.084s-.41-.08-.535.16c-.125.239.136.866.023 1.49-.113.626-.455 2.698-.455 2.698H4.28s.592-1.736.729-2.215z"/><path fill="#202020" d="M13.776 14.684s2.467.959 2.402 1.138c-.064.18-2.562-.314-2.562-.314l.16-.824zm-.189 1.5c.041-.033 1.778 1.514 1.7 1.604-.102.117-1.958-.76-1.958-.76l.258-.844z"/><path d="M21.396 5.047c.055-.065.246-.13.218-.284-.027-.156-.2-.273-.566-.255-.365.017-.742.336-.924.62-.078.122-.1.53.073.614.175.08 1.199-.695 1.199-.695z"/><path fill="#fff" d="M20.7 6.273c-.038.146-.003.591-.065.924-.074.394-.229.585-.43.576-.44-.018-.23-1.545-.166-1.727.064-.183.385-.644.605-.846.096-.087.772-.369.862-.293.107.094.06.327-.375.706a1.64 1.64 0 0 0-.432.66zm.697-.521c-.017.21.192.238.192.238s-.092.12-.045.256c.044.137.32.201.32.201s-.115.068-.08.176c.056.181.252.162.42.283.117.086.252.287.252.287s.215-.23.123-.682c-.063-.308-.172-.779-.276-.869-.283-.248-.883-.146-.906.11zm.705 1.931s-.037-.422-.32-.586c-.33-.192-.457.01-.504.054-.047.045.017 2.051.037 2.18.017.13.289.715.535.613.248-.101.28-.916.27-1.42a68.994 68.994 0 0 0-.018-.841zM3.879 24.181c-.037.037-.13.03-.197 0-.069-.03-.282-1.06-.249-1.912.03-.773.09-.892.09-.892s.326-.426.832-.864c.44-.379 1.442-.71 1.446-.67.01.11-.616.518-1.008 1.409-.356.806-.637 1.76-.707 2.076-.069.318-.158.804-.207.853zm3.53-7.395c-.01.048.097.318.07.611-.03.326-.213.686-.203.715.01.03.129.068.248.377.12.306.022.8.125.806.322.018.871-.804.82-1.656-.078-1.289-1.06-.853-1.06-.853zm.47-1.759c-.076-.023-.12.319.045.43.162.113.515.033.664-.156.24-.305 1.53-3.162 3.793-1.928.795.434 1.004 1.2 1.017 2.057.016 1.037-.275 2.174-.242 2.236.063.113.17-.12.252-.352.088-.244.305-1.027.307-2.01.002-.923-.28-1.912-1.258-2.382-2.416-1.164-3.904 1.502-4.006 1.726-.101.227-.283.467-.572.38zM20.02 8.699c.2.076.173 3.177.246 4.709 0 .005-.088.57-.3 1.324-.241.861-1.142 3.408-1.11 3.62.033.214.58 1.438.677 1.733.098.293.215.613.1.987a.85.85 0 0 1-.166.302s.342.8.262 1.207c-.082.409-.456.59-.842.686-.248.062-.71-.033-.645-.293.065-.262.483-1.313.385-1.85a8.192 8.192 0 0 0-.402-1.511c-.165-.424-1.127-2.774-1.356-3.102-.228-.326-.703-.281-.734-.41-.033-.131.976-.746 1.515-1.203.54-.457 1.004-.992 1.004-1.065.004-.154-.066-2.554.032-2.865.097-.31.369-.95.695-1.496.283-.469.426-.855.639-.773z"/><path fill="#fff" d="M16.491 17.96c.078-.06.45.104.74 1.059.248.816.526 2.3.141 2.287-.191-.006-.523-.846-.824-1.293-.238-.355-.525-.73-.506-.89.02-.16.488-.075.479-.319-.016-.35-.116-.777-.03-.844zm-8.145 4.75c.455-.334.672-.389.672-.389s-.38-.588-.768-1.05c-.389-.465-1.297-1.354-1.27-1.46.03-.103.663-.226 1.979-.199 1.316.03 2.264.086 2.451.047.19-.037.645-.426 1.041-.482.399-.057.569-.094.569-.094s.152-.236.814-.559c.473-.228.795-.283.795-.283s.05-.242.125-.316c.037-.037.318.295.502.613s.281.65.348.746c.066.096.214.178.812 1.145a18.096 18.096 0 0 1 1.418 2.924c.266.722.283.863.283.863l-.623-.006s-.088-.71-.523-1.764c-.436-1.056-.909-1.742-.96-1.713-.05.03.286 1.49.477 1.979.192.486.67 1.5.67 1.5h-1.377s-1.074-1.235-1.982-2.069c-.908-.834-1.953-1.47-2.442-1.7-.486-.23-.92-.343-.925-.255-.006.088 1.425.954 2.046 1.485.62.531 2.499 2.535 2.499 2.535l-1.89-.004s-.456-.975-.788-1.52c-.332-.546-.76-1.15-.834-1.158-.074-.008.215 1.002.482 1.639.287.682.51 1.039.51 1.039l-1.104-.006s-.427-1.219-.714-1.994c-.287-.775-.494-1.512-.56-1.57-.067-.059-.747-.244-1.153-.385-.406-.14-.776-.324-.842-.258-.066.067 1.254 1.617 1.613 2.084.4.518 1.12 1.295.996 1.399-.123.103-.406-.256-.937-.21-.531.047-1.4.926-1.4.926l-1.409.002c0-.006.848-1.078 1.399-1.482zm6.033-3.172c-.621-.783-.906-.705-.906-.705s-.07.418.486 1.018c.498.535 1.166 1.134 1.219 1.046.05-.082-.307-.738-.8-1.359zm-.47 2.209c.26.21 1.651 1.104 1.736.97.068-.107-.909-1.261-1.448-1.61-.539-.35-2.513-.829-2.558-.737-.037.082 1.976 1.143 2.27 1.377zm-3.433-6.934c.432.021.6.304.801.275.135-.02.61-.484.574-.711-.033-.21-.299-.315-.71-.315-.31 0-.436.09-.598.186-.114.069-.147-.144-.057-.234.17-.17.412-.25.803-.27.389-.017.566.088.935.033.114.235.235.297.405.502.16.192.254.301.396.616.113.25.127.61-.016.574-.142-.037-.158-.387-.222-.533-.14-.319-.27-.334-.399-.291-.072.023-.119.242-.064.388.025.067.11.123.193.268.135.228.08.342.162.566.05.133.227.36.202.59-.041.389-.131.455-.202.654-.074.207-.12.453-.267.502-.156.053-.268-.234-.582-.355-.453-.176-.66-.088-.873-.225-.287-.183-.455-.613-.664-.81-.332-.315-.658-.608-.639-.906.02-.36.39-.526.822-.505zm1.221 1.843c.219.112.486.264.582.098.113-.197.041-.502.041-.502s.016-.225.016-.34c0-.217-.022-.492-.155-.517-.128-.024-.59.056-.646.185-.086.195.01.32.01.32s-.293.028-.325.27c-.035.258.182.336.477.486z"/><path fill="#fff" d="M11.601 16.06c.086-.023.16.033.275.106.096.06.18.125.206.19.044.122-.096.23-.368.075-.238-.139-.228-.34-.113-.37z"/><path fill="#484A4E" d="M8.172 14.414c-.026.04-.045.07-.057.094-.148.287-.42.504-.504.406-.06-.07.03-.371.149-.672l.412.172zm.368-1.458c.525-.597 1.424-1.281 2.66-1.226 1.946.086 2.46 1.923 2.254 1.976-.148.04-.371-1.238-2.273-1.295-.85-.025-1.633.504-2.198 1.043l-.443-.498zm-.462.612c.047-.072.12-.18.213-.302l.463.425c-.162.174-.3.34-.406.479l-.438-.272a2.83 2.83 0 0 1 .168-.33z"/><path fill="#202020" d="M7.473 13.917l-3.393-1.51s.063-.156.254-.103c.187.05 3.475 1.05 3.475 1.05s-.102.151-.17.266c-.067.117-.166.297-.166.297zm4.57-2.287l-.219 1.018-.365-.097.1-1 .484.08zm-1.426-.153l.18 1.113-.346.058-.316-1.107.482-.064zm2.127.718l-.187.733.296.168.327-.623-.436-.278zm-3.473-.226l.584.998-.267.168-.692-.88.375-.286z"/></symbol><symbol id="phone-outline" viewBox="0 0 24 24"><path d="M7.155 3.102L9.52 2l3.361 6.575-2.266 1.118c-.447 1.049 1.796 5.24 2.743 5.31a207.56 207.56 0 0 1 2.222-1.107l3.42 6.61s-2.3 1.128-2.374 1.163C10.086 24.662.734 6.454 7.155 3.102zm1.604 1.061l-.85.42c-4.405 2.302 3.474 17.655 8.026 15.572l.807-.395-1.889-3.652-.854.416c-2.63 1.29-6.873-6.849-4.205-8.281l.838-.415-1.873-3.665z"/></symbol><symbol id="linkedin" viewBox="0 0 24 24"><path d="M19.041 19.042h-2.963v-4.641c0-1.107-.02-2.531-1.542-2.531-1.543 0-1.78 1.205-1.78 2.451v4.721H9.794V9.498h2.845v1.304h.04a3.12 3.12 0 0 1 2.806-1.542c3.004 0 3.557 1.976 3.557 4.546v5.236zM6.45 8.192a1.72 1.72 0 1 1 0-3.438 1.72 1.72 0 0 1 0 3.439zm1.481 10.85H4.965V9.498H7.93v9.544zM20.52 2.002H3.475A1.46 1.46 0 0 0 2 3.442v17.114A1.46 1.46 0 0 0 3.475 22H20.52c.807.01 1.47-.636 1.481-1.443V3.442A1.463 1.463 0 0 0 20.519 2"/></symbol><symbol id="location-arrow-outline" viewBox="0 0 24 24"><path d="M19.154 4.848l-4.328 11.56-1.453-5.782-5.776-1.444 11.557-4.335zM22 2L2 9.5 12 12l2.512 10L22 2z"/></symbol><symbol id="quote-right" viewBox="0 0 24 24"><path d="M1.69 21.823l.478-3.5c1.242.097 2.15-.159 2.724-.766.573-.607.924-1.422 1.051-2.445.128-1.023.16-2.125.096-3.307H1.69V1.69h8.172v12.032c0 2.94-.733 5.145-2.198 6.615-1.498 1.47-3.489 1.965-5.974 1.486zm12.138 0l.478-3.5c1.243.097 2.15-.159 2.724-.766.573-.607.924-1.422 1.051-2.445a18.66 18.66 0 0 0 .096-3.307h-4.349V1.69H22v12.032c0 2.94-.733 5.145-2.198 6.615-1.498 1.47-3.489 1.965-5.974 1.486z"/></symbol><symbol id="star" viewBox="0 0 24 24"><path d="M11.67 18.494a.589.589 0 0 1 .66 0l5.126 3.403c.488.324 1.087-.163.957-.777l-1.356-6.394a.763.763 0 0 1 .207-.706l4.51-4.298c.434-.413.204-1.201-.364-1.254l-5.95-.555a.652.652 0 0 1-.538-.431l-2.33-6.049c-.223-.577-.961-.577-1.184 0l-2.33 6.049a.653.653 0 0 1-.538.43l-5.95.556c-.568.053-.798.841-.365 1.254l4.51 4.298a.763.763 0 0 1 .208.706L5.587 21.12c-.13.614.469 1.1.957.777l5.126-3.403z"/></symbol><symbol id="x-twitter" viewBox="0 0 24 24"><path fill-rule="evenodd" d="M12.695 8.751L17.748 3h3.069l-6.7 7.624L22 20.998 15.828 21l-4.837-6.29L5.464 21H2.39l7.167-8.156L2 3h6.328l4.367 5.751zm3.978 10.424h1.7L7.404 4.733H5.578l11.095 14.442z" clip-rule="evenodd"/></symbol><symbol id="arrow-down-right" viewBox="0 0 16 16"><path d="M13 6.333h-1.333v4.394L3.94 3 3 3.94l7.727 7.727H6.333V13H13V6.333z"/></symbol><symbol id="whatsapp" viewBox="0 0 24 24"><path fill-rule="evenodd" d="M19.087 4.907A9.919 9.919 0 0 0 12.042 2c-5.489 0-9.956 4.445-9.958 9.91a9.85 9.85 0 0 0 1.33 4.955L2 22l5.279-1.378a9.985 9.985 0 0 0 4.758 1.206h.004c5.488 0 9.956-4.445 9.959-9.91a9.823 9.823 0 0 0-2.913-7.011zm-7.045 15.247h-.003a8.285 8.285 0 0 1-4.213-1.148l-.302-.178-3.133.817.837-3.04-.197-.312a8.183 8.183 0 0 1-1.265-4.383c.002-4.542 3.715-8.237 8.28-8.237a8.24 8.24 0 0 1 5.852 2.415 8.17 8.17 0 0 1 2.421 5.828c-.002 4.543-3.715 8.238-8.277 8.238zm4.54-6.169c-.248-.124-1.472-.723-1.7-.806-.228-.082-.394-.124-.56.123-.167.248-.643.806-.788.972-.145.165-.291.186-.54.062-.248-.124-1.05-.385-2-1.23-.74-.656-1.24-1.467-1.385-1.715-.145-.248-.015-.382.109-.505.112-.111.249-.29.373-.434.126-.144.167-.247.25-.413.084-.165.043-.31-.02-.434-.063-.123-.56-1.343-.767-1.838-.202-.484-.407-.418-.56-.425a9.63 9.63 0 0 0-.478-.009.914.914 0 0 0-.663.31c-.228.249-.87.848-.87 2.066 0 1.22.891 2.397 1.015 2.562.124.165 1.754 2.666 4.25 3.739.594.255 1.058.407 1.419.522.596.188 1.139.161 1.567.098.478-.07 1.472-.6 1.68-1.177.208-.579.208-1.075.145-1.178-.062-.104-.228-.166-.477-.29z" clip-rule="evenodd"/></symbol><symbol id="arrow-down-left" viewBox="0 0 16 16"><path d="M9.667 13v-1.333H5.273L13 3.94 12.06 3l-7.727 7.727V6.333H3V13h6.667z"/></symbol><symbol id="arrow-left" viewBox="0 0 14 10"><path d="M4.999 9.667l.94-.94-3.054-3.06h10.78V4.334H2.885l3.06-3.06L5 .334.332 5.001l4.667 4.666z"/></symbol><symbol id="arrow-down" viewBox="0 0 16 16"><path d="M12.665 10l-.94-.94-3.06 3.054V1.334H7.332v10.78l-3.06-3.06-.94.947 4.667 4.666 4.666-4.666z"/></symbol><symbol id="arrow-up-left" viewBox="0 0 16 16"><path d="M3 9.667h1.333V5.273L12.06 13l.94-.94-7.727-7.727h4.394V3H3v6.667z"/></symbol><symbol id="arrow-up" viewBox="0 0 16 16"><path d="M3.332 6l.94.94 3.06-3.053v10.78h1.333V3.887l3.06 3.06.94-.946L8 1.334 3.332 6.001z"/></symbol><symbol id="arrow-up-right" viewBox="0 0 16 16"><path d="M6.333 3v1.333h4.394L3 12.06l.94.94 7.727-7.727v4.394H13V3H6.333z"/></symbol><symbol id="arrow-right" viewBox="0 0 16 16"><path d="M9.999 3.334l-.94.94 3.053 3.06H1.332v1.333h10.78l-3.06 3.06.947.94 4.666-4.666L10 3.334z"/></symbol></svg>
